<svg width="253" height="108" viewBox="0 0 253 108" fill="currentColor" xmlns="http://www.w3.org/2000/svg">
<path id="SHAPE" d="M51.1076 17.7201L70.7276 54.6511C71.8696 56.8011 74.0906 58.1361 76.5236 58.1361C78.8486 58.1361 80.9516 56.9471 82.1496 54.9541C83.3476 52.9611 83.4106 50.5461 82.3206 48.4931L69.9706 25.2471C67.1116 19.8641 61.7586 16.7661 55.6756 16.9341C54.0786 16.9801 52.5456 17.2481 51.1076 17.7201ZM34.5636 5.40107C34.4956 5.40107 34.4286 5.40207 34.3596 5.40407C31.8386 5.47707 29.7056 6.88907 28.6536 9.18207L6.03162 58.4661C5.04162 60.6231 5.20762 63.0071 6.48962 65.0051C7.77062 67.0031 9.86762 68.1501 12.2416 68.1501C14.9036 68.1501 17.3416 66.5861 18.4526 64.1671L36.9776 23.8081C38.5406 20.4041 40.9076 17.5671 43.8016 15.4801L40.2756 8.84407C39.1246 6.67707 36.9996 5.40107 34.5636 5.40107ZM12.2416 73.5511C8.05362 73.5511 4.20362 71.4461 1.94262 67.9211C-0.318377 64.3961 -0.624377 60.0191 1.12262 56.2121L23.7446 6.92807C25.6436 2.79007 29.6516 0.137066 34.2026 0.00506592C38.7786 -0.125934 42.9086 2.28907 45.0456 6.31007L48.5556 12.9161C50.7386 12.0821 53.0856 11.6051 55.5196 11.5341C63.5886 11.3171 70.9536 15.5831 74.7416 22.7131L87.0906 45.9591C89.0786 49.7011 88.9626 54.1041 86.7786 57.7361C84.5956 61.3691 80.7616 63.5371 76.5236 63.5371C72.0876 63.5371 68.0396 61.1041 65.9576 57.1851L46.3546 20.2861C44.4866 21.7801 42.9556 23.7331 41.8866 26.0621L23.3616 66.4201C21.3736 70.7521 17.0086 73.5511 12.2416 73.5511Z" fill="currentColor"/>
<path id="A" fill-rule="evenodd" clip-rule="evenodd" d="M53.7762 73.5511L43.1992 107.701H49.8472L53.2912 96.4671H68.0282L71.5062 107.701H78.2562L67.2752 73.5511H53.7762ZM59.8212 75.1631L54.8932 91.2391H66.4102L61.4332 75.1631H59.8212Z" fill="currentColor"/>
<path id="R" fill-rule="evenodd" clip-rule="evenodd" d="M99.7232 73.5511C105.667 73.5511 110.486 78.3701 110.486 84.3141C110.486 88.8981 107.615 92.8021 103.577 94.3531L114.425 107.701H106.234L97.7442 97.0881C97.7352 97.0781 97.7272 97.0681 97.7192 97.0571C96.7122 95.7951 95.1752 95.0771 93.5612 95.0771H88.5032V107.701H81.9922V73.5511H99.7232ZM98.1852 89.7541H88.5032V78.7461H98.1852C101.225 78.7461 103.689 81.2101 103.689 84.2501C103.689 87.2901 101.225 89.7541 98.1852 89.7541Z" fill="currentColor"/>
<path id="C" d="M122.228 90.6021C122.228 97.0101 127.246 102.204 133.437 102.204C138.599 102.204 142.943 99.4931 144.245 94.1251H150.87C149.385 103.111 142.147 107.654 133.437 107.654C123.652 107.654 115.72 100.019 115.72 90.6021C115.72 81.1851 123.652 73.5511 133.437 73.5511C142.041 73.5511 149.209 78.1471 150.815 86.8091H144.163C142.767 81.7001 138.494 79.0011 133.437 79.0011C127.246 79.0011 122.228 84.1951 122.228 90.6021Z" fill="currentColor"/>
<path id="H" d="M161.592 88.6261H180.793V73.5511H187.23V107.701H180.793V93.9711H161.592V107.654H154.828V73.5511H161.592V88.6261Z" fill="currentColor"/>
<path id="E" d="M218.807 107.654H192.841V73.5511H218.807V78.8971H199.605V87.9531H217.08V93.2991H199.605V102.308H218.807V107.654Z" fill="currentColor"/>
<path id="S" d="M239.706 87.5091C233.246 86.1991 230.582 85.2501 230.582 83.1271C230.582 80.6431 233.201 78.8971 239.074 78.8971C243.727 78.8971 247.882 80.1911 250.864 81.1401V75.5831C248.244 74.4541 244.178 73.5511 239.074 73.5511C227.735 73.5511 223.173 77.7521 223.173 83.4441C223.173 88.7741 227.69 91.7561 236.363 93.4721C242.823 94.7821 245.353 95.7301 245.353 97.8541C245.353 100.564 242.191 102.308 235.505 102.308C230.807 102.308 225.929 100.971 223.037 99.9771V105.578C225.703 106.662 230.401 107.701 235.821 107.701C247.476 107.701 252.897 103.365 252.897 97.5821C252.897 91.9361 248.379 89.2261 239.706 87.5091Z" fill="currentColor"/>
</svg>
